<?xml version="1.0" encoding="iso-8859-1"?>
<!-- Generator: Adobe Illustrator 16.0.0, SVG Export Plug-In . SVG Version: 6.00 Build 0)  -->
<!DOCTYPE svg PUBLIC "-//W3C//DTD SVG 1.1//EN" "http://www.w3.org/Graphics/SVG/1.1/DTD/svg11.dtd">
<svg version="1.1" id="&#x5716;&#x5C64;_1" xmlns="http://www.w3.org/2000/svg" xmlns:xlink="http://www.w3.org/1999/xlink" x="0px"
	 y="0px" width="82px" height="82px" viewBox="0 0 82 82" style="enable-background:new 0 0 82 82;" xml:space="preserve">
<g>
	<defs>
		<rect id="SVGID_1_" width="82" height="82"/>
	</defs>
	<clipPath id="SVGID_2_">
		<use xlink:href="#SVGID_1_"  style="overflow:visible;"/>
	</clipPath>
	<path style="clip-path:url(#SVGID_2_);fill:#C09966;" d="M72.975,38.68c-0.661,0-1.572,0.064-2.242,0.072
		c0.67-0.726,1.46-1.412,2.072-2.186c0.477-0.604,0.67-1.137,0.67-1.597c0-0.96-0.887-1.541-1.822-1.541
		c-1.267,0-1.88,0.959-1.88,1.242c0,0.25,0.234,0.428,0.476,0.428c0.153,0,0.315-0.073,0.42-0.243
		c0.267-0.435,0.646-0.621,0.992-0.621c0.451,0,0.839,0.314,0.839,0.822c0,0.291-0.129,0.646-0.452,1.032
		c-0.709,0.871-1.646,1.832-2.202,2.46c-0.16,0.178-0.233,0.371-0.233,0.548c0,0.266,0.169,0.476,0.452,0.476h2.888
		c0.33,0,0.507-0.241,0.507-0.476C73.458,38.889,73.306,38.68,72.975,38.68"/>
	<path style="clip-path:url(#SVGID_2_);fill:#C09966;" d="M16.347,45.475c-0.473-0.055-0.793-0.319-1.141-0.891
		c-0.486-0.778-0.876-1.627-1.558-2.378c-0.098-0.111-0.194-0.181-0.194-0.237c0-0.041,0.042-0.055,0.139-0.083
		c1.251-0.25,2.03-1.418,2.03-2.615c0-1.308-0.932-2.629-3.186-2.782c-0.208-0.014-0.528-0.028-0.848-0.028
		c-1.169,0-2.755,0-2.796,1.78c-0.014,0.57-0.014,0.626-0.014,3.63c0,1.53,0,3.186-0.042,4.479v0.027
		c0,0.459,0.376,0.696,0.751,0.696c0.404,0,0.807-0.251,0.821-0.766c0-0.501-0.042-2.782-0.042-3.825
		c0-0.251,0.195-0.264,0.458-0.264c0.265,0,0.584,0.013,0.765,0.013c0.668,0.015,1.489,1.613,2.379,3.158
		c0.945,1.684,2.086,1.725,2.309,1.725c0.612,0,0.89-0.403,0.89-0.82C17.07,45.906,16.819,45.53,16.347,45.475 M11.436,40.968
		c-0.973,0-1.154-0.014-1.154-0.293c0.014-0.806,0-1.793,0.028-2.128c0.042-0.653,0.543-0.695,1.294-0.695
		c0.264,0,0.515,0,0.696,0.014c1.209,0.07,1.739,0.751,1.739,1.446c0,0.751-0.612,1.531-1.643,1.628
		C12.146,40.954,11.784,40.968,11.436,40.968"/>
	<path style="clip-path:url(#SVGID_2_);fill:#C09966;" d="M24.68,36.461c-3.061,0-5.355,2.267-5.355,5.397
		c0,3.241,2.294,5.396,5.355,5.396s5.37-2.155,5.37-5.396C30.049,38.729,27.74,36.461,24.68,36.461 M24.68,45.795
		c-2.058,0-3.728-1.544-3.728-3.937c0-2.406,1.67-3.964,3.728-3.964s3.729,1.558,3.729,3.964
		C28.408,44.251,26.738,45.795,24.68,45.795"/>
	<path style="clip-path:url(#SVGID_2_);fill:#C09966;" d="M40.915,36.573c-0.278,0-0.821,0.111-0.807,0.737
		c0.014,0.599,0.028,1.21,0.028,1.822c0,1.224-0.028,2.463-0.028,3.672c0,1.893-1.349,2.88-2.656,2.88
		c-1.266,0-2.518-0.904-2.518-2.769v-0.041v-0.528c0-1.127-0.028-2.268-0.028-3.408c0-0.542,0.015-1.085,0.028-1.628v-0.027
		c0-0.474-0.403-0.709-0.793-0.709c-0.556,0-0.821,0.333-0.807,0.737c0.028,0.807,0.028,1.641,0.028,2.49
		c0,1.015,0,2.045-0.015,3.018v0.071c0,2.905,2.073,4.353,4.159,4.353c2.044,0,4.271-1.447,4.2-4.479
		c-0.014-0.877-0.027-1.655-0.027-2.448c0-0.904,0.014-1.85,0.042-3.005v-0.027C41.721,36.809,41.318,36.573,40.915,36.573"/>
	<path style="clip-path:url(#SVGID_2_);fill:#C09966;" d="M53.241,36.544c-0.445,0-0.821,0.293-0.807,0.751
		c0.042,1.28,0.084,5.62,0.084,6.928c0,0.542-0.057,0.584-0.099,0.584c-0.041,0-0.11-0.07-0.194-0.195
		c-1.058-1.586-3.38-5.925-4.256-7.317c-0.293-0.458-0.85-0.751-1.363-0.751c-0.612,0-1.155,0.39-1.155,1.363v0.056
		c0.015,1.043,0.028,2.365,0.028,3.756c0,1.6-0.014,3.283-0.041,4.715v0.015c0,0.445,0.403,0.668,0.806,0.668
		c0.404,0,0.793-0.21,0.793-0.655v-0.027c-0.041-1.475-0.083-5.578-0.083-7.024c0-0.641,0-0.78,0.083-0.78
		c0.07,0,0.167,0.181,0.223,0.264c0.751,1.267,3.353,6.024,4.326,7.567c0.307,0.474,0.751,0.696,1.196,0.696
		c0.653,0,1.266-0.486,1.266-1.321v-0.028c-0.028-1.21-0.042-3.032-0.042-4.799c0-1.391,0.014-2.74,0.042-3.714v-0.027
		C54.047,36.795,53.644,36.544,53.241,36.544"/>
	<path style="clip-path:url(#SVGID_2_);fill:#C09966;" d="M62.158,36.489c-0.208-0.014-0.626-0.028-1.057-0.028
		c-1.726,0-3.103,0.056-3.214,1.961c-0.041,0.751-0.083,2.365-0.083,3.895c0,1.168,0.028,2.295,0.07,2.978
		c0.138,1.946,2.114,1.96,3.227,1.96c1.446,0,6.036-0.014,6.036-5.424C67.137,38.938,65.372,36.698,62.158,36.489 M61.101,45.767
		c-1.154,0-1.586-0.11-1.655-0.751c-0.056-0.527-0.084-1.558-0.084-2.656c0-1.503,0.042-3.103,0.084-3.687
		c0.041-0.695,0.792-0.709,1.46-0.709c0.515,0,1.113,0.014,1.113,0.014c2.128,0,3.478,1.614,3.478,3.854
		C65.497,45.767,62.561,45.767,61.101,45.767"/>
	<path style="clip-path:url(#SVGID_2_);fill:#C09966;" d="M41,0C18.393,0,0,18.393,0,41c0,22.607,18.393,41,41,41
		C63.608,82,82,63.607,82,41C82,18.393,63.608,0,41,0 M51.834,79.2c-3.37-0.059-9.664-0.893-16.331-5.535
		c-7.243-5.044-12.077-3.938-19.824-7.542c-5.439-2.529-9.89-8.429-12.062-11.722C2.112,50.213,1.286,45.701,1.286,41
		C1.286,19.102,19.102,1.286,41,1.286c21.897,0,39.714,17.815,39.714,39.714C80.714,59.143,68.481,74.472,51.834,79.2"/>
</g>
</svg>
